<svg xmlns="http://www.w3.org/2000/svg" viewBox="0 0 800 500" role="img" aria-label="Original illustration of a patterned highland heritage courtyard"><rect width="800" height="500" fill="#e9c99d"/><path d="M0 500V174h168v92h74v-143h159v143h77v-92h161v326Z" fill="#bd6f52"/><path d="M51 500V247h83v253M273 500V196h94v304M509 500V247h85v253M637 500V217h103v283" fill="#70483d"/><path d="M0 182h800v50H0Z" fill="#f4dfb1"/><path d="M28 207h80m42 0h80m43 0h80m45 0h80m42 0h80m43 0h80" stroke="#267163" stroke-width="17"/><circle cx="316" cy="331" r="38" fill="#efbd64"/><path d="M316 292v78M277 331h78" stroke="#d95f4c" stroke-width="15"/><path d="M87 131l38-70 38 70ZM646 131l38-70 38 70Z" fill="#315c4d"/><path d="m171 457 65-37 65 37-65 37Z" fill="#e6ad64" opacity=".9"/></svg>
