<svg xmlns="http://www.w3.org/2000/svg" viewBox="0 0 800 500" role="img" aria-label="Original illustration of coffee, warm bread, and juniper on a café table"><rect width="800" height="500" fill="#f0d19d"/><path d="M0 330h800v170H0Z" fill="#9d5e42"/><path d="M50 365h700" stroke="#f8dfa9" stroke-width="15" opacity=".8"/><ellipse cx="390" cy="352" rx="242" ry="85" fill="#f5e2c0"/><ellipse cx="390" cy="352" rx="207" ry="59" fill="#d99855"/><path d="M315 195h108v134H315Z" fill="#f7efe0"/><path d="M423 226h47c20 0 20 70 0 70h-47" fill="none" stroke="#f7efe0" stroke-width="16"/><ellipse cx="369" cy="196" rx="54" ry="15" fill="#603f31"/><path d="M320 176c-25-50 21-69 7-116m52 112c-21-52 25-69 11-117m49 118c-26-45 19-65 7-105" fill="none" stroke="#fff1d0" stroke-width="12" stroke-linecap="round" opacity=".7"/><path d="M522 317c31-72 95-74 123-5-26 38-95 48-123 5Z" fill="#e7b363"/><path d="M529 313c29-41 75-42 108 0" fill="none" stroke="#b77543" stroke-width="8"/><path d="m122 262 44-82 29 80 34-73 24 103" fill="none" stroke="#296651" stroke-width="17" stroke-linecap="round"/><circle cx="133" cy="251" r="11" fill="#508b67"/><circle cx="166" cy="223" r="11" fill="#508b67"/><circle cx="199" cy="260" r="11" fill="#508b67"/></svg>
